# xmcd
# Track frame offsets:
# 150
# 21480
# 44556
# 65576
# 103308
# 129445
# 158121
# 189333
#
# Disc length: 3932 seconds
# Revision: 0
# Processed by: cddbd v1.5.2PL0 Copyright (c) Steve Scherf et al.
# Submitted via: VisiTrax 2.10.2.252 - For more info visit www.synapsa.com
#
DISCID=700f5a08
DTITLE=Lance Lopez - Live
DYEAR=2007
DGENRE=Bluesrock
TTITLE0=Spanish castle magic
TTITLE1=There is love
TTITLE2=Killing floor
TTITLE3=Mr. Rattlesnake
TTITLE4=The Brick
TTITLE5=I´m doin´fine
TTITLE6=Walk It
TTITLE7=Everytime I turn around
EXTD=
EXTT0=
EXTT1=
EXTT2=
EXTT3=
EXTT4=
EXTT5=
EXTT6=
EXTT7=
PLAYORDER=
